<svg width="112" height="100" viewBox="0 0 112 100" fill="none" xmlns="http://www.w3.org/2000/svg">
<path d="M77.48 0.0238189C80.6 0.145746 79.76 -0.585816 80.72 1.60887V1.7308C81.2 7.82715 81.2 7.82715 82.76 26.2381C83.24 32.5783 83.12 30.2617 83.36 33.188C83.6 31.481 83.96 29.8959 84.2 28.189C84.68 25.6285 88.28 25.7504 88.64 28.3109C89.24 32.3345 89.72 36.3581 90.32 40.3817C91.52 48.7946 91.04 45.6245 91.64 49.892C92.12 48.0631 92.72 46.1122 93.2 44.2833C93.92 41.9667 97.28 42.2106 97.52 44.6491C98 48.9166 98 48.9166 99.56 61.7189L99.68 62.6943C100.16 59.89 100.52 56.9637 101 54.1594L101.12 53.6717C101.84 51.5989 101.84 51.5989 104.24 45.3807C106.4 39.5282 106.52 39.1624 107.24 37.3335C107.36 37.2116 107.48 37.0896 107.72 37.0896L111.2 38.4308C111.32 38.5528 111.32 38.6747 111.44 38.9185C109.4 44.2833 107.48 49.6481 105.44 55.0129C105.44 55.0129 105.44 55.0129 105.44 55.1348C104.84 59.1584 104.24 63.182 103.64 67.2056C102.68 73.4239 102.44 75.3747 102.08 77.0817C101.6 80.1299 97.4 80.0079 97.04 76.9598C96.8 74.5212 96.44 72.2046 95.24 62.3285C94.64 57.4514 94.88 59.5242 94.52 56.2322C94.04 57.9392 93.56 59.6461 93.08 61.3531C92.36 63.6697 89.12 63.4259 88.76 60.9873C88.16 56.9637 88.16 56.9637 86.48 45.0149L86.24 43.3079C85.88 45.1368 85.64 46.9657 85.28 48.7946C84.8 51.8428 80.48 51.5989 80.24 48.5508C79.88 44.6491 79.64 41.9667 78.44 26.7258C77.96 20.9953 78.08 21.8488 77.84 19.6541C77.84 19.2883 77.24 19.1664 77.12 19.6541C76.4 23.19 75.56 26.8478 74.84 30.3836C74.24 33.066 70.52 33.188 69.8 30.5056C69.44 29.0424 69.08 27.5793 68.72 26.1162C68.6 25.7504 68.12 25.7504 68 26.1162C67.52 28.189 67.76 27.2135 66.92 31.3591C64.76 41.479 64.4 43.186 63.92 45.8684C63.32 48.6727 59.36 48.5508 58.88 45.7464C58.76 45.1368 58.64 44.6491 58.64 44.0395C58.52 43.6737 58.04 43.6737 57.92 44.0395C57.56 45.5026 57.68 45.0149 56.84 49.1604C54.2 61.2312 53.96 62.5724 53.24 65.9863C52.64 68.6687 48.92 68.7907 48.2 66.1083L46.88 61.1093L46.4 63.4259C44.96 70.3757 44.72 71.7169 44.24 73.4239C43.64 76.1063 39.92 76.2282 39.2 73.5458C38.72 71.595 38.36 70.2538 36.32 62.8162C35.24 58.7926 35.84 60.8654 34.76 56.8418V56.9637C33.32 60.2558 32.96 61.1093 32.6 61.8408C31.64 64.1574 28.28 63.7916 27.68 61.3531C27.44 60.2558 27.2 59.1584 27.08 58.0611C26.96 57.6953 26.48 57.6953 26.36 58.0611C26.12 59.4023 26.24 58.9146 25.4 63.0601C23.24 74.2774 22.88 76.1063 22.28 79.0325C21.68 81.8368 17.72 81.8368 17.24 79.0325C16.88 77.0817 16.52 75.0089 16.16 73.0581C15.56 75.1309 16.04 73.6677 14.96 77.5694C12.44 87.0797 12.2 88.299 11.48 90.8594C10.88 93.4199 7.27997 93.4199 6.55997 90.9814C6.43997 90.6156 5.95997 90.6156 5.83997 90.9814C5.35997 93.6638 4.87997 96.3462 4.39997 99.0285C4.39997 99.2724 4.15997 99.3943 4.03997 99.2724L0.319974 98.5408C0.0799743 98.5408 -0.0400254 98.297 0.0799746 98.1751C0.439975 95.9804 0.919975 93.6638 1.27997 91.4691C1.87997 88.0551 2.47997 84.5192 3.19997 81.1053C3.67997 78.4229 7.39997 78.179 8.11998 80.8614C8.23997 81.3491 8.35997 81.7149 8.47997 82.2026C8.59997 82.5684 9.07997 82.5684 9.19998 82.2026C9.91997 79.3983 9.55997 80.7395 10.64 76.594C13.04 67.4495 13.4 65.9863 14 63.6697C14.72 60.9873 18.56 61.1093 19.04 63.9136C19.28 65.3767 19.52 66.8398 19.76 68.3029C20.36 65.4986 19.88 67.3275 20.84 62.4505C23 51.1112 23.36 49.4043 23.96 46.3561C24.44 43.5518 28.4 43.5518 29 46.3561C29.24 47.4534 29.48 48.9166 30.32 53.184L30.68 54.769C31.28 53.3059 32 51.8428 32.6 50.2577C33.56 48.0631 36.8 48.3069 37.4 50.6235C38 52.8182 38.24 53.7936 40.4 61.7189C41.24 64.7671 40.88 63.6697 41.24 64.889L41.72 62.5724C43.16 55.6225 43.4 54.2813 43.76 52.5744C44.36 49.892 48.08 49.77 48.8 52.4524C49.28 54.1594 49.76 55.8664 50.12 57.4514L51.08 52.8182C52.64 45.2587 54.32 37.6993 55.88 30.1398C56.36 27.7013 59.84 27.8232 60.2 30.2617C60.44 31.9687 60.8 33.6757 61.04 35.3827C61.52 33.188 61.16 34.773 62.12 30.5056C64.28 20.0198 64.64 18.5567 65.24 15.7524C65.84 13.07 69.56 12.9481 70.28 15.6305C70.76 17.5813 71.24 19.5321 71.72 21.361C72.32 18.5567 71.96 20.3856 72.8 16.2401C75.08 5.26668 75.08 5.26668 75.92 1.60887V1.48694L76.64 0.267673C77.24 0.145746 77.36 0.0238189 77.48 0.0238189Z" fill="#95CE5A"/>
</svg>
